<svg width="309" height="144" viewBox="0 0 309 144" fill="none" xmlns="http://www.w3.org/2000/svg">
<g filter="url(#filter0_d_27_185)">
<rect x="6" y="5" width="297" height="132" rx="20" fill="white"/>
<path d="M106.013 48.668C106.133 46.268 106.973 44.42 108.533 43.124C110.117 41.804 112.193 41.144 114.761 41.144C116.513 41.144 118.013 41.456 119.261 42.08C120.509 42.68 121.445 43.508 122.069 44.564C122.717 45.596 123.041 46.772 123.041 48.092C123.041 49.604 122.645 50.888 121.853 51.944C121.085 52.976 120.161 53.672 119.081 54.032V54.176C120.473 54.608 121.553 55.376 122.321 56.48C123.113 57.584 123.509 59 123.509 60.728C123.509 62.168 123.173 63.452 122.501 64.58C121.853 65.708 120.881 66.596 119.585 67.244C118.313 67.868 116.777 68.18 114.977 68.18C112.265 68.18 110.057 67.496 108.353 66.128C106.649 64.76 105.749 62.744 105.653 60.08H110.549C110.597 61.256 110.993 62.204 111.737 62.924C112.505 63.62 113.549 63.968 114.869 63.968C116.093 63.968 117.029 63.632 117.677 62.96C118.349 62.264 118.685 61.376 118.685 60.296C118.685 58.856 118.229 57.824 117.317 57.2C116.405 56.576 114.989 56.264 113.069 56.264H112.025V52.124H113.069C116.477 52.124 118.181 50.984 118.181 48.704C118.181 47.672 117.869 46.868 117.245 46.292C116.645 45.716 115.769 45.428 114.617 45.428C113.489 45.428 112.613 45.74 111.989 46.364C111.389 46.964 111.041 47.732 110.945 48.668H106.013ZM127.492 54.536C127.492 50.384 128.236 47.132 129.724 44.78C131.236 42.428 133.732 41.252 137.212 41.252C140.692 41.252 143.176 42.428 144.664 44.78C146.176 47.132 146.932 50.384 146.932 54.536C146.932 58.712 146.176 61.988 144.664 64.364C143.176 66.74 140.692 67.928 137.212 67.928C133.732 67.928 131.236 66.74 129.724 64.364C128.236 61.988 127.492 58.712 127.492 54.536ZM141.964 54.536C141.964 52.76 141.844 51.272 141.604 50.072C141.388 48.848 140.932 47.852 140.236 47.084C139.564 46.316 138.556 45.932 137.212 45.932C135.868 45.932 134.848 46.316 134.152 47.084C133.48 47.852 133.024 48.848 132.784 50.072C132.568 51.272 132.46 52.76 132.46 54.536C132.46 56.36 132.568 57.896 132.784 59.144C133 60.368 133.456 61.364 134.152 62.132C134.848 62.876 135.868 63.248 137.212 63.248C138.556 63.248 139.576 62.876 140.272 62.132C140.968 61.364 141.424 60.368 141.64 59.144C141.856 57.896 141.964 56.36 141.964 54.536ZM150.765 54.536C150.765 50.384 151.509 47.132 152.997 44.78C154.509 42.428 157.005 41.252 160.485 41.252C163.965 41.252 166.449 42.428 167.937 44.78C169.449 47.132 170.205 50.384 170.205 54.536C170.205 58.712 169.449 61.988 167.937 64.364C166.449 66.74 163.965 67.928 160.485 67.928C157.005 67.928 154.509 66.74 152.997 64.364C151.509 61.988 150.765 58.712 150.765 54.536ZM165.237 54.536C165.237 52.76 165.117 51.272 164.877 50.072C164.661 48.848 164.205 47.852 163.509 47.084C162.837 46.316 161.829 45.932 160.485 45.932C159.141 45.932 158.121 46.316 157.425 47.084C156.753 47.852 156.297 48.848 156.057 50.072C155.841 51.272 155.733 52.76 155.733 54.536C155.733 56.36 155.841 57.896 156.057 59.144C156.273 60.368 156.729 61.364 157.425 62.132C158.121 62.876 159.141 63.248 160.485 63.248C161.829 63.248 162.849 62.876 163.545 62.132C164.241 61.364 164.697 60.368 164.913 59.144C165.129 57.896 165.237 56.36 165.237 54.536ZM193.443 57.38H186.639V64.364H181.887V57.38H175.083V52.988H181.887V46.004H186.639V52.988H193.443V57.38Z" fill="#1E88E5"/>
<path d="M29.5359 92.648H26.7759V104H24.5919V92.648H22.8879V90.848H24.5919V89.912C24.5919 88.44 24.9679 87.368 25.7199 86.696C26.4879 86.008 27.7119 85.664 29.3919 85.664V87.488C28.4319 87.488 27.7519 87.68 27.3519 88.064C26.9679 88.432 26.7759 89.048 26.7759 89.912V90.848H29.5359V92.648ZM34.2664 92.984C34.6504 92.232 35.1944 91.648 35.8984 91.232C36.6184 90.816 37.4904 90.608 38.5144 90.608V92.864H37.9384C35.4904 92.864 34.2664 94.192 34.2664 96.848V104H32.0824V90.848H34.2664V92.984ZM53.0355 96.92C53.0355 97.336 53.0115 97.776 52.9635 98.24H42.4515C42.5315 99.536 42.9715 100.552 43.7715 101.288C44.5875 102.008 45.5715 102.368 46.7235 102.368C47.6675 102.368 48.4515 102.152 49.0755 101.72C49.7155 101.272 50.1635 100.68 50.4195 99.944H52.7715C52.4195 101.208 51.7155 102.24 50.6595 103.04C49.6035 103.824 48.2915 104.216 46.7235 104.216C45.4755 104.216 44.3555 103.936 43.3635 103.376C42.3875 102.816 41.6195 102.024 41.0595 101C40.4995 99.96 40.2195 98.76 40.2195 97.4C40.2195 96.04 40.4915 94.848 41.0355 93.824C41.5795 92.8 42.3395 92.016 43.3155 91.472C44.3075 90.912 45.4435 90.632 46.7235 90.632C47.9715 90.632 49.0755 90.904 50.0355 91.448C50.9955 91.992 51.7315 92.744 52.2435 93.704C52.7715 94.648 53.0355 95.72 53.0355 96.92ZM50.7795 96.464C50.7795 95.632 50.5955 94.92 50.2275 94.328C49.8595 93.72 49.3555 93.264 48.7155 92.96C48.0915 92.64 47.3955 92.48 46.6275 92.48C45.5235 92.48 44.5795 92.832 43.7955 93.536C43.0275 94.24 42.5875 95.216 42.4755 96.464H50.7795ZM67.9183 96.92C67.9183 97.336 67.8943 97.776 67.8463 98.24H57.3343C57.4143 99.536 57.8543 100.552 58.6543 101.288C59.4703 102.008 60.4543 102.368 61.6063 102.368C62.5503 102.368 63.3343 102.152 63.9583 101.72C64.5983 101.272 65.0463 100.68 65.3023 99.944H67.6543C67.3023 101.208 66.5983 102.24 65.5423 103.04C64.4863 103.824 63.1743 104.216 61.6063 104.216C60.3583 104.216 59.2383 103.936 58.2463 103.376C57.2703 102.816 56.5023 102.024 55.9423 101C55.3823 99.96 55.1023 98.76 55.1023 97.4C55.1023 96.04 55.3743 94.848 55.9183 93.824C56.4623 92.8 57.2223 92.016 58.1983 91.472C59.1903 90.912 60.3263 90.632 61.6063 90.632C62.8543 90.632 63.9583 90.904 64.9183 91.448C65.8783 91.992 66.6143 92.744 67.1263 93.704C67.6543 94.648 67.9183 95.72 67.9183 96.92ZM65.6623 96.464C65.6623 95.632 65.4783 94.92 65.1103 94.328C64.7423 93.72 64.2383 93.264 63.5983 92.96C62.9743 92.64 62.2783 92.48 61.5103 92.48C60.4063 92.48 59.4623 92.832 58.6783 93.536C57.9103 94.24 57.4703 95.216 57.3583 96.464H65.6623ZM72.9851 86.24V104H70.8011V86.24H72.9851ZM75.8914 97.376C75.8914 96.032 76.1634 94.856 76.7074 93.848C77.2514 92.824 77.9954 92.032 78.9394 91.472C79.8994 90.912 80.9634 90.632 82.1314 90.632C83.2834 90.632 84.2834 90.88 85.1314 91.376C85.9794 91.872 86.6114 92.496 87.0274 93.248V90.848H89.2354V104H87.0274V101.552C86.5954 102.32 85.9474 102.96 85.0834 103.472C84.2354 103.968 83.2434 104.216 82.1074 104.216C80.9394 104.216 79.8834 103.928 78.9394 103.352C77.9954 102.776 77.2514 101.968 76.7074 100.928C76.1634 99.888 75.8914 98.704 75.8914 97.376ZM87.0274 97.4C87.0274 96.408 86.8274 95.544 86.4274 94.808C86.0274 94.072 85.4834 93.512 84.7954 93.128C84.1234 92.728 83.3794 92.528 82.5634 92.528C81.7474 92.528 81.0034 92.72 80.3314 93.104C79.6594 93.488 79.1234 94.048 78.7234 94.784C78.3234 95.52 78.1234 96.384 78.1234 97.376C78.1234 98.384 78.3234 99.264 78.7234 100.016C79.1234 100.752 79.6594 101.32 80.3314 101.72C81.0034 102.104 81.7474 102.296 82.5634 102.296C83.3794 102.296 84.1234 102.104 84.7954 101.72C85.4834 101.32 86.0274 100.752 86.4274 100.016C86.8274 99.264 87.0274 98.392 87.0274 97.4ZM99.3341 90.608C100.934 90.608 102.23 91.096 103.222 92.072C104.214 93.032 104.71 94.424 104.71 96.248V104H102.55V96.56C102.55 95.248 102.222 94.248 101.566 93.56C100.91 92.856 100.014 92.504 98.8781 92.504C97.7261 92.504 96.8061 92.864 96.1181 93.584C95.4461 94.304 95.1101 95.352 95.1101 96.728V104H92.9261V90.848H95.1101V92.72C95.5421 92.048 96.1261 91.528 96.8621 91.16C97.6141 90.792 98.4381 90.608 99.3341 90.608ZM107.462 97.4C107.462 96.04 107.734 94.856 108.278 93.848C108.822 92.824 109.574 92.032 110.534 91.472C111.51 90.912 112.622 90.632 113.87 90.632C115.486 90.632 116.814 91.024 117.854 91.808C118.91 92.592 119.606 93.68 119.942 95.072H117.59C117.366 94.272 116.926 93.64 116.27 93.176C115.63 92.712 114.83 92.48 113.87 92.48C112.622 92.48 111.614 92.912 110.846 93.776C110.078 94.624 109.694 95.832 109.694 97.4C109.694 98.984 110.078 100.208 110.846 101.072C111.614 101.936 112.622 102.368 113.87 102.368C114.83 102.368 115.63 102.144 116.27 101.696C116.91 101.248 117.35 100.608 117.59 99.776H119.942C119.59 101.12 118.886 102.2 117.83 103.016C116.774 103.816 115.454 104.216 113.87 104.216C112.622 104.216 111.51 103.936 110.534 103.376C109.574 102.816 108.822 102.024 108.278 101C107.734 99.976 107.462 98.776 107.462 97.4ZM134.856 96.92C134.856 97.336 134.832 97.776 134.784 98.24H124.272C124.352 99.536 124.792 100.552 125.592 101.288C126.408 102.008 127.392 102.368 128.544 102.368C129.488 102.368 130.272 102.152 130.896 101.72C131.536 101.272 131.984 100.68 132.24 99.944H134.592C134.24 101.208 133.536 102.24 132.48 103.04C131.424 103.824 130.112 104.216 128.544 104.216C127.296 104.216 126.176 103.936 125.184 103.376C124.208 102.816 123.44 102.024 122.88 101C122.32 99.96 122.04 98.76 122.04 97.4C122.04 96.04 122.312 94.848 122.856 93.824C123.4 92.8 124.16 92.016 125.136 91.472C126.128 90.912 127.264 90.632 128.544 90.632C129.792 90.632 130.896 90.904 131.856 91.448C132.816 91.992 133.552 92.744 134.064 93.704C134.592 94.648 134.856 95.72 134.856 96.92ZM132.6 96.464C132.6 95.632 132.416 94.92 132.048 94.328C131.68 93.72 131.176 93.264 130.536 92.96C129.912 92.64 129.216 92.48 128.448 92.48C127.344 92.48 126.4 92.832 125.616 93.536C124.848 94.24 124.408 95.216 124.296 96.464H132.6ZM161.657 90.848L157.553 104H155.297L152.129 93.56L148.961 104H146.705L142.577 90.848H144.809L147.833 101.888L151.097 90.848H153.329L156.521 101.912L159.497 90.848H161.657ZM169.561 104.216C168.329 104.216 167.209 103.936 166.201 103.376C165.209 102.816 164.425 102.024 163.849 101C163.289 99.96 163.009 98.76 163.009 97.4C163.009 96.056 163.297 94.872 163.873 93.848C164.465 92.808 165.265 92.016 166.273 91.472C167.281 90.912 168.409 90.632 169.657 90.632C170.905 90.632 172.033 90.912 173.041 91.472C174.049 92.016 174.841 92.8 175.417 93.824C176.009 94.848 176.305 96.04 176.305 97.4C176.305 98.76 176.001 99.96 175.393 101C174.801 102.024 173.993 102.816 172.969 103.376C171.945 103.936 170.809 104.216 169.561 104.216ZM169.561 102.296C170.345 102.296 171.081 102.112 171.769 101.744C172.457 101.376 173.009 100.824 173.425 100.088C173.857 99.352 174.073 98.456 174.073 97.4C174.073 96.344 173.865 95.448 173.449 94.712C173.033 93.976 172.489 93.432 171.817 93.08C171.145 92.712 170.417 92.528 169.633 92.528C168.833 92.528 168.097 92.712 167.425 93.08C166.769 93.432 166.241 93.976 165.841 94.712C165.441 95.448 165.241 96.344 165.241 97.4C165.241 98.472 165.433 99.376 165.817 100.112C166.217 100.848 166.745 101.4 167.401 101.768C168.057 102.12 168.777 102.296 169.561 102.296ZM181.36 92.984C181.744 92.232 182.288 91.648 182.992 91.232C183.712 90.816 184.584 90.608 185.608 90.608V92.864H185.032C182.584 92.864 181.36 94.192 181.36 96.848V104H179.176V90.848H181.36V92.984ZM195.473 104L190.313 98.192V104H188.129V86.24H190.313V96.68L195.377 90.848H198.425L192.233 97.4L198.449 104H195.473ZM218.063 92.168C218.063 93.56 217.583 94.72 216.623 95.648C215.679 96.56 214.231 97.016 212.279 97.016H209.063V104H206.879V87.272H212.279C214.167 87.272 215.599 87.728 216.575 88.64C217.567 89.552 218.063 90.728 218.063 92.168ZM212.279 95.216C213.495 95.216 214.391 94.952 214.967 94.424C215.543 93.896 215.831 93.144 215.831 92.168C215.831 90.104 214.647 89.072 212.279 89.072H209.063V95.216H212.279ZM226.514 104.216C225.282 104.216 224.162 103.936 223.154 103.376C222.162 102.816 221.378 102.024 220.802 101C220.242 99.96 219.962 98.76 219.962 97.4C219.962 96.056 220.25 94.872 220.826 93.848C221.418 92.808 222.218 92.016 223.226 91.472C224.234 90.912 225.362 90.632 226.61 90.632C227.858 90.632 228.986 90.912 229.994 91.472C231.002 92.016 231.794 92.8 232.37 93.824C232.962 94.848 233.258 96.04 233.258 97.4C233.258 98.76 232.954 99.96 232.346 101C231.754 102.024 230.946 102.816 229.922 103.376C228.898 103.936 227.762 104.216 226.514 104.216ZM226.514 102.296C227.298 102.296 228.034 102.112 228.722 101.744C229.41 101.376 229.962 100.824 230.378 100.088C230.81 99.352 231.026 98.456 231.026 97.4C231.026 96.344 230.818 95.448 230.402 94.712C229.986 93.976 229.442 93.432 228.77 93.08C228.098 92.712 227.37 92.528 226.586 92.528C225.786 92.528 225.05 92.712 224.378 93.08C223.722 93.432 223.194 93.976 222.794 94.712C222.394 95.448 222.194 96.344 222.194 97.4C222.194 98.472 222.386 99.376 222.77 100.112C223.17 100.848 223.698 101.4 224.354 101.768C225.01 102.12 225.73 102.296 226.514 102.296ZM240.785 104.216C239.777 104.216 238.873 104.048 238.073 103.712C237.273 103.36 236.641 102.88 236.177 102.272C235.713 101.648 235.457 100.936 235.409 100.136H237.665C237.729 100.792 238.033 101.328 238.577 101.744C239.137 102.16 239.865 102.368 240.761 102.368C241.593 102.368 242.249 102.184 242.729 101.816C243.209 101.448 243.449 100.984 243.449 100.424C243.449 99.848 243.193 99.424 242.681 99.152C242.169 98.864 241.377 98.584 240.305 98.312C239.329 98.056 238.529 97.8 237.905 97.544C237.297 97.272 236.769 96.88 236.321 96.368C235.889 95.84 235.673 95.152 235.673 94.304C235.673 93.632 235.873 93.016 236.273 92.456C236.673 91.896 237.241 91.456 237.977 91.136C238.713 90.8 239.553 90.632 240.497 90.632C241.953 90.632 243.129 91 244.025 91.736C244.921 92.472 245.401 93.48 245.465 94.76H243.281C243.233 94.072 242.953 93.52 242.441 93.104C241.945 92.688 241.273 92.48 240.425 92.48C239.641 92.48 239.017 92.648 238.553 92.984C238.089 93.32 237.857 93.76 237.857 94.304C237.857 94.736 237.993 95.096 238.265 95.384C238.553 95.656 238.905 95.88 239.321 96.056C239.753 96.216 240.345 96.4 241.097 96.608C242.041 96.864 242.809 97.12 243.401 97.376C243.993 97.616 244.497 97.984 244.913 98.48C245.345 98.976 245.569 99.624 245.585 100.424C245.585 101.144 245.385 101.792 244.985 102.368C244.585 102.944 244.017 103.4 243.281 103.736C242.561 104.056 241.729 104.216 240.785 104.216ZM251.332 92.648V100.4C251.332 101.04 251.468 101.496 251.74 101.768C252.012 102.024 252.484 102.152 253.156 102.152H254.764V104H252.796C251.58 104 250.668 103.72 250.06 103.16C249.452 102.6 249.148 101.68 249.148 100.4V92.648H247.444V90.848H249.148V87.536H251.332V90.848H254.764V92.648H251.332ZM269.411 96.92C269.411 97.336 269.387 97.776 269.339 98.24H258.827C258.907 99.536 259.347 100.552 260.147 101.288C260.963 102.008 261.947 102.368 263.099 102.368C264.043 102.368 264.827 102.152 265.451 101.72C266.091 101.272 266.539 100.68 266.795 99.944H269.147C268.795 101.208 268.091 102.24 267.035 103.04C265.979 103.824 264.667 104.216 263.099 104.216C261.851 104.216 260.731 103.936 259.739 103.376C258.763 102.816 257.995 102.024 257.435 101C256.875 99.96 256.595 98.76 256.595 97.4C256.595 96.04 256.867 94.848 257.411 93.824C257.955 92.8 258.715 92.016 259.691 91.472C260.683 90.912 261.819 90.632 263.099 90.632C264.347 90.632 265.451 90.904 266.411 91.448C267.371 91.992 268.107 92.744 268.619 93.704C269.147 94.648 269.411 95.72 269.411 96.92ZM267.155 96.464C267.155 95.632 266.971 94.92 266.603 94.328C266.235 93.72 265.731 93.264 265.091 92.96C264.467 92.64 263.771 92.48 263.003 92.48C261.899 92.48 260.955 92.832 260.171 93.536C259.403 94.24 258.963 95.216 258.851 96.464H267.155ZM271.477 97.376C271.477 96.032 271.749 94.856 272.293 93.848C272.837 92.824 273.581 92.032 274.525 91.472C275.485 90.912 276.557 90.632 277.741 90.632C278.765 90.632 279.717 90.872 280.597 91.352C281.477 91.816 282.149 92.432 282.613 93.2V86.24H284.821V104H282.613V101.528C282.181 102.312 281.541 102.96 280.693 103.472C279.845 103.968 278.853 104.216 277.717 104.216C276.549 104.216 275.485 103.928 274.525 103.352C273.581 102.776 272.837 101.968 272.293 100.928C271.749 99.888 271.477 98.704 271.477 97.376ZM282.613 97.4C282.613 96.408 282.413 95.544 282.013 94.808C281.613 94.072 281.069 93.512 280.381 93.128C279.709 92.728 278.965 92.528 278.149 92.528C277.333 92.528 276.589 92.72 275.917 93.104C275.245 93.488 274.709 94.048 274.309 94.784C273.909 95.52 273.709 96.384 273.709 97.376C273.709 98.384 273.909 99.264 274.309 100.016C274.709 100.752 275.245 101.32 275.917 101.72C276.589 102.104 277.333 102.296 278.149 102.296C278.965 102.296 279.709 102.104 280.381 101.72C281.069 101.32 281.613 100.752 282.013 100.016C282.413 99.264 282.613 98.392 282.613 97.4Z" fill="#9D9D9D"/>
</g>
<defs>
<filter id="filter0_d_27_185" x="0" y="0" width="309" height="144" filterUnits="userSpaceOnUse" color-interpolation-filters="sRGB">
<feFlood flood-opacity="0" result="BackgroundImageFix"/>
<feColorMatrix in="SourceAlpha" type="matrix" values="0 0 0 0 0 0 0 0 0 0 0 0 0 0 0 0 0 0 127 0" result="hardAlpha"/>
<feOffset dy="1"/>
<feGaussianBlur stdDeviation="3"/>
<feComposite in2="hardAlpha" operator="out"/>
<feColorMatrix type="matrix" values="0 0 0 0 0 0 0 0 0 0 0 0 0 0 0 0 0 0 0.1 0"/>
<feBlend mode="normal" in2="BackgroundImageFix" result="effect1_dropShadow_27_185"/>
<feBlend mode="normal" in="SourceGraphic" in2="effect1_dropShadow_27_185" result="shape"/>
</filter>
</defs>
</svg>
