<svg width="174" height="152" viewBox="0 0 174 152" fill="none" xmlns="http://www.w3.org/2000/svg">
<g filter="url(#filter0_d_27_186)">
<rect x="6" y="5" width="162" height="140" rx="20" fill="white"/>
<path d="M55.2726 50.112H43.6086V56.268C44.1126 55.644 44.8326 55.14 45.7686 54.756C46.7046 54.348 47.7006 54.144 48.7566 54.144C50.6766 54.144 52.2486 54.564 53.4726 55.404C54.6966 56.244 55.5846 57.324 56.1366 58.644C56.6886 59.94 56.9646 61.332 56.9646 62.82C56.9646 65.58 56.1726 67.8 54.5886 69.48C53.0286 71.16 50.7966 72 47.8926 72C45.1566 72 42.9726 71.316 41.3406 69.948C39.7086 68.58 38.7846 66.792 38.5686 64.584H43.4646C43.6806 65.544 44.1606 66.312 44.9046 66.888C45.6726 67.464 46.6446 67.752 47.8206 67.752C49.2366 67.752 50.3046 67.308 51.0246 66.42C51.7446 65.532 52.1046 64.356 52.1046 62.892C52.1046 61.404 51.7326 60.276 50.9886 59.508C50.2686 58.716 49.2006 58.32 47.7846 58.32C46.7766 58.32 45.9366 58.572 45.2646 59.076C44.5926 59.58 44.1126 60.252 43.8246 61.092H39.0006V45.684H55.2726V50.112ZM60.8006 58.536C60.8006 54.384 61.5446 51.132 63.0326 48.78C64.5446 46.428 67.0406 45.252 70.5206 45.252C74.0006 45.252 76.4846 46.428 77.9726 48.78C79.4846 51.132 80.2406 54.384 80.2406 58.536C80.2406 62.712 79.4846 65.988 77.9726 68.364C76.4846 70.74 74.0006 71.928 70.5206 71.928C67.0406 71.928 64.5446 70.74 63.0326 68.364C61.5446 65.988 60.8006 62.712 60.8006 58.536ZM75.2726 58.536C75.2726 56.76 75.1526 55.272 74.9126 54.072C74.6966 52.848 74.2406 51.852 73.5446 51.084C72.8726 50.316 71.8646 49.932 70.5206 49.932C69.1766 49.932 68.1566 50.316 67.4606 51.084C66.7886 51.852 66.3326 52.848 66.0926 54.072C65.8766 55.272 65.7686 56.76 65.7686 58.536C65.7686 60.36 65.8766 61.896 66.0926 63.144C66.3086 64.368 66.7646 65.364 67.4606 66.132C68.1566 66.876 69.1766 67.248 70.5206 67.248C71.8646 67.248 72.8846 66.876 73.5806 66.132C74.2766 65.364 74.7326 64.368 74.9486 63.144C75.1646 61.896 75.2726 60.36 75.2726 58.536ZM84.074 58.536C84.074 54.384 84.818 51.132 86.306 48.78C87.818 46.428 90.314 45.252 93.794 45.252C97.274 45.252 99.758 46.428 101.246 48.78C102.758 51.132 103.514 54.384 103.514 58.536C103.514 62.712 102.758 65.988 101.246 68.364C99.758 70.74 97.274 71.928 93.794 71.928C90.314 71.928 87.818 70.74 86.306 68.364C84.818 65.988 84.074 62.712 84.074 58.536ZM98.546 58.536C98.546 56.76 98.426 55.272 98.186 54.072C97.97 52.848 97.514 51.852 96.818 51.084C96.146 50.316 95.138 49.932 93.794 49.932C92.45 49.932 91.43 50.316 90.734 51.084C90.062 51.852 89.606 52.848 89.366 54.072C89.15 55.272 89.042 56.76 89.042 58.536C89.042 60.36 89.15 61.896 89.366 63.144C89.582 64.368 90.038 65.364 90.734 66.132C91.43 66.876 92.45 67.248 93.794 67.248C95.138 67.248 96.158 66.876 96.854 66.132C97.55 65.364 98.006 64.368 98.222 63.144C98.438 61.896 98.546 60.36 98.546 58.536ZM126.751 61.38H119.947V68.364H115.195V61.38H108.391V56.988H115.195V50.004H119.947V56.988H126.751V61.38Z" fill="#1E88E5"/>
<path d="M26.6766 96.648H23.9166V108H21.7326V96.648H20.0286V94.848H21.7326V93.912C21.7326 92.44 22.1086 91.368 22.8606 90.696C23.6286 90.008 24.8526 89.664 26.5326 89.664V91.488C25.5726 91.488 24.8926 91.68 24.4926 92.064C24.1086 92.432 23.9166 93.048 23.9166 93.912V94.848H26.6766V96.648ZM31.407 96.984C31.791 96.232 32.335 95.648 33.039 95.232C33.759 94.816 34.631 94.608 35.655 94.608V96.864H35.079C32.631 96.864 31.407 98.192 31.407 100.848V108H29.223V94.848H31.407V96.984ZM50.1761 100.92C50.1761 101.336 50.1521 101.776 50.1041 102.24H39.5921C39.6721 103.536 40.1121 104.552 40.9121 105.288C41.7281 106.008 42.7121 106.368 43.8641 106.368C44.8081 106.368 45.5921 106.152 46.2161 105.72C46.8561 105.272 47.3041 104.68 47.5601 103.944H49.9121C49.5601 105.208 48.8561 106.24 47.8001 107.04C46.7441 107.824 45.4321 108.216 43.8641 108.216C42.6161 108.216 41.4961 107.936 40.5041 107.376C39.5281 106.816 38.7601 106.024 38.2001 105C37.6401 103.96 37.3601 102.76 37.3601 101.4C37.3601 100.04 37.6321 98.848 38.1761 97.824C38.7201 96.8 39.4801 96.016 40.4561 95.472C41.4481 94.912 42.5841 94.632 43.8641 94.632C45.1121 94.632 46.2161 94.904 47.1761 95.448C48.1361 95.992 48.8721 96.744 49.3841 97.704C49.9121 98.648 50.1761 99.72 50.1761 100.92ZM47.9201 100.464C47.9201 99.632 47.7361 98.92 47.3681 98.328C47.0001 97.72 46.4961 97.264 45.8561 96.96C45.2321 96.64 44.5361 96.48 43.7681 96.48C42.6641 96.48 41.7201 96.832 40.9361 97.536C40.1681 98.24 39.7281 99.216 39.6161 100.464H47.9201ZM65.0589 100.92C65.0589 101.336 65.0349 101.776 64.9869 102.24H54.4749C54.5549 103.536 54.9949 104.552 55.7949 105.288C56.6109 106.008 57.5949 106.368 58.7469 106.368C59.6909 106.368 60.4749 106.152 61.0989 105.72C61.7389 105.272 62.1869 104.68 62.4429 103.944H64.7949C64.4429 105.208 63.7389 106.24 62.6829 107.04C61.6269 107.824 60.3149 108.216 58.7469 108.216C57.4989 108.216 56.3789 107.936 55.3869 107.376C54.4109 106.816 53.6429 106.024 53.0829 105C52.5229 103.96 52.2429 102.76 52.2429 101.4C52.2429 100.04 52.5149 98.848 53.0589 97.824C53.6029 96.8 54.3629 96.016 55.3389 95.472C56.3309 94.912 57.4669 94.632 58.7469 94.632C59.9949 94.632 61.0989 94.904 62.0589 95.448C63.0189 95.992 63.7549 96.744 64.2669 97.704C64.7949 98.648 65.0589 99.72 65.0589 100.92ZM62.8029 100.464C62.8029 99.632 62.6189 98.92 62.2509 98.328C61.8829 97.72 61.3789 97.264 60.7389 96.96C60.1149 96.64 59.4189 96.48 58.6509 96.48C57.5469 96.48 56.6029 96.832 55.8189 97.536C55.0509 98.24 54.6109 99.216 54.4989 100.464H62.8029ZM70.1258 90.24V108H67.9418V90.24H70.1258ZM73.032 101.376C73.032 100.032 73.304 98.856 73.848 97.848C74.392 96.824 75.136 96.032 76.08 95.472C77.04 94.912 78.104 94.632 79.272 94.632C80.424 94.632 81.424 94.88 82.272 95.376C83.12 95.872 83.752 96.496 84.168 97.248V94.848H86.376V108H84.168V105.552C83.736 106.32 83.088 106.96 82.224 107.472C81.376 107.968 80.384 108.216 79.248 108.216C78.08 108.216 77.024 107.928 76.08 107.352C75.136 106.776 74.392 105.968 73.848 104.928C73.304 103.888 73.032 102.704 73.032 101.376ZM84.168 101.4C84.168 100.408 83.968 99.544 83.568 98.808C83.168 98.072 82.624 97.512 81.936 97.128C81.264 96.728 80.52 96.528 79.704 96.528C78.888 96.528 78.144 96.72 77.472 97.104C76.8 97.488 76.264 98.048 75.864 98.784C75.464 99.52 75.264 100.384 75.264 101.376C75.264 102.384 75.464 103.264 75.864 104.016C76.264 104.752 76.8 105.32 77.472 105.72C78.144 106.104 78.888 106.296 79.704 106.296C80.52 106.296 81.264 106.104 81.936 105.72C82.624 105.32 83.168 104.752 83.568 104.016C83.968 103.264 84.168 102.392 84.168 101.4ZM96.4748 94.608C98.0748 94.608 99.3708 95.096 100.363 96.072C101.355 97.032 101.851 98.424 101.851 100.248V108H99.6908V100.56C99.6908 99.248 99.3628 98.248 98.7068 97.56C98.0508 96.856 97.1548 96.504 96.0188 96.504C94.8668 96.504 93.9468 96.864 93.2588 97.584C92.5868 98.304 92.2508 99.352 92.2508 100.728V108H90.0668V94.848H92.2508V96.72C92.6828 96.048 93.2668 95.528 94.0028 95.16C94.7548 94.792 95.5788 94.608 96.4748 94.608ZM104.602 101.4C104.602 100.04 104.874 98.856 105.418 97.848C105.962 96.824 106.714 96.032 107.674 95.472C108.65 94.912 109.762 94.632 111.01 94.632C112.626 94.632 113.954 95.024 114.994 95.808C116.05 96.592 116.746 97.68 117.082 99.072H114.73C114.506 98.272 114.066 97.64 113.41 97.176C112.77 96.712 111.97 96.48 111.01 96.48C109.762 96.48 108.754 96.912 107.986 97.776C107.218 98.624 106.834 99.832 106.834 101.4C106.834 102.984 107.218 104.208 107.986 105.072C108.754 105.936 109.762 106.368 111.01 106.368C111.97 106.368 112.77 106.144 113.41 105.696C114.05 105.248 114.49 104.608 114.73 103.776H117.082C116.73 105.12 116.026 106.2 114.97 107.016C113.914 107.816 112.594 108.216 111.01 108.216C109.762 108.216 108.65 107.936 107.674 107.376C106.714 106.816 105.962 106.024 105.418 105C104.874 103.976 104.602 102.776 104.602 101.4ZM131.996 100.92C131.996 101.336 131.972 101.776 131.924 102.24H121.412C121.492 103.536 121.932 104.552 122.732 105.288C123.548 106.008 124.532 106.368 125.684 106.368C126.628 106.368 127.412 106.152 128.036 105.72C128.676 105.272 129.124 104.68 129.38 103.944H131.732C131.38 105.208 130.676 106.24 129.62 107.04C128.564 107.824 127.252 108.216 125.684 108.216C124.436 108.216 123.316 107.936 122.324 107.376C121.348 106.816 120.58 106.024 120.02 105C119.46 103.96 119.18 102.76 119.18 101.4C119.18 100.04 119.452 98.848 119.996 97.824C120.54 96.8 121.3 96.016 122.276 95.472C123.268 94.912 124.404 94.632 125.684 94.632C126.932 94.632 128.036 94.904 128.996 95.448C129.956 95.992 130.692 96.744 131.204 97.704C131.732 98.648 131.996 99.72 131.996 100.92ZM129.74 100.464C129.74 99.632 129.556 98.92 129.188 98.328C128.82 97.72 128.316 97.264 127.676 96.96C127.052 96.64 126.356 96.48 125.588 96.48C124.484 96.48 123.54 96.832 122.756 97.536C121.988 98.24 121.548 99.216 121.436 100.464H129.74ZM137.063 96.984C137.447 96.232 137.991 95.648 138.695 95.232C139.415 94.816 140.287 94.608 141.311 94.608V96.864H140.735C138.287 96.864 137.063 98.192 137.063 100.848V108H134.879V94.848H137.063V96.984ZM148.488 108.216C147.48 108.216 146.576 108.048 145.776 107.712C144.976 107.36 144.344 106.88 143.88 106.272C143.416 105.648 143.16 104.936 143.112 104.136H145.368C145.432 104.792 145.736 105.328 146.28 105.744C146.84 106.16 147.568 106.368 148.464 106.368C149.296 106.368 149.952 106.184 150.432 105.816C150.912 105.448 151.152 104.984 151.152 104.424C151.152 103.848 150.896 103.424 150.384 103.152C149.872 102.864 149.08 102.584 148.008 102.312C147.032 102.056 146.232 101.8 145.608 101.544C145 101.272 144.472 100.88 144.024 100.368C143.592 99.84 143.376 99.152 143.376 98.304C143.376 97.632 143.576 97.016 143.976 96.456C144.376 95.896 144.944 95.456 145.68 95.136C146.416 94.8 147.256 94.632 148.2 94.632C149.656 94.632 150.832 95 151.728 95.736C152.624 96.472 153.104 97.48 153.168 98.76H150.984C150.936 98.072 150.656 97.52 150.144 97.104C149.648 96.688 148.976 96.48 148.128 96.48C147.344 96.48 146.72 96.648 146.256 96.984C145.792 97.32 145.56 97.76 145.56 98.304C145.56 98.736 145.696 99.096 145.968 99.384C146.256 99.656 146.608 99.88 147.024 100.056C147.456 100.216 148.048 100.4 148.8 100.608C149.744 100.864 150.512 101.12 151.104 101.376C151.696 101.616 152.2 101.984 152.616 102.48C153.048 102.976 153.272 103.624 153.288 104.424C153.288 105.144 153.088 105.792 152.688 106.368C152.288 106.944 151.72 107.4 150.984 107.736C150.264 108.056 149.432 108.216 148.488 108.216Z" fill="#9D9D9D"/>
</g>
<defs>
<filter id="filter0_d_27_186" x="0" y="0" width="174" height="152" filterUnits="userSpaceOnUse" color-interpolation-filters="sRGB">
<feFlood flood-opacity="0" result="BackgroundImageFix"/>
<feColorMatrix in="SourceAlpha" type="matrix" values="0 0 0 0 0 0 0 0 0 0 0 0 0 0 0 0 0 0 127 0" result="hardAlpha"/>
<feOffset dy="1"/>
<feGaussianBlur stdDeviation="3"/>
<feComposite in2="hardAlpha" operator="out"/>
<feColorMatrix type="matrix" values="0 0 0 0 0 0 0 0 0 0 0 0 0 0 0 0 0 0 0.1 0"/>
<feBlend mode="normal" in2="BackgroundImageFix" result="effect1_dropShadow_27_186"/>
<feBlend mode="normal" in="SourceGraphic" in2="effect1_dropShadow_27_186" result="shape"/>
</filter>
</defs>
</svg>
